<svg width="1788" height="497" xmlns="http://www.w3.org/2000/svg" xmlns:xlink="http://www.w3.org/1999/xlink" xml:space="preserve" overflow="hidden"><defs><clipPath id="clip0"><rect x="81" y="1001" width="1788" height="497"/></clipPath></defs><g clip-path="url(#clip0)" transform="translate(-81 -1001)"><path d="M1745.6 1332.6 1745.6 1376.16 1789.66 1376.16C1797.67 1376.16 1804.02 1374.14 1808.72 1370.11 1813.43 1366.07 1815.78 1360.54 1815.78 1353.53 1815.78 1349.58 1814.71 1345.98 1812.56 1342.74 1810.42 1339.49 1807.51 1336.99 1803.84 1335.24 1800.16 1333.48 1795.81 1332.6 1790.78 1332.6ZM1700.18 1297.47 1793.75 1297.47C1804.31 1297.47 1813.84 1298.77 1822.34 1301.35 1830.84 1303.94 1838.04 1307.61 1843.94 1312.34 1849.84 1317.08 1854.44 1322.89 1857.74 1329.78 1861.04 1336.66 1862.69 1344.32 1862.69 1352.74 1862.69 1364.05 1859.49 1374.8 1853.1 1384.97 1846.7 1395.15 1835.95 1401.95 1820.85 1405.37L1869 1491.82 1820.11 1491.82 1774.81 1411.55 1745.11 1411.55 1745.11 1491.82 1700.18 1491.82ZM1536.58 1297.47 1663.32 1297.47 1656.51 1333.13 1581.26 1333.13 1581.26 1373.53 1650.7 1373.53 1650.7 1409.05 1581.26 1409.05 1581.26 1456.29 1658.49 1456.29 1665.43 1491.82 1536.58 1491.82ZM1320.54 1297.47 1499.75 1297.47 1499.75 1337.74 1432.3 1337.74 1432.3 1491.82 1387.49 1491.82 1387.49 1337.74 1320.54 1337.74ZM1168.33 1297.47 1297.17 1297.47 1290.48 1332.6 1212.76 1332.6 1212.76 1378.66 1281.94 1378.66 1281.94 1413.66 1213.01 1413.66 1213.01 1491.82 1168.33 1491.82ZM1075.52 1297.47 1120.08 1297.47 1120.08 1491.82 1075.52 1491.82ZM858.819 1297.47 903.871 1297.47 903.871 1373.26 982.958 1373.26 982.958 1297.47 1027.51 1297.47 1027.51 1491.82 982.958 1491.82 982.958 1409.84 903.376 1409.84 903.376 1491.82 858.819 1491.82ZM733.246 1293C749.419 1293 762.992 1295.21 773.966 1299.64 784.94 1304.07 793.377 1309.23 799.276 1315.1 805.176 1320.98 809.446 1326.73 812.087 1332.34L784.115 1357.34C780.319 1350.32 776.091 1344.64 771.428 1340.3 766.767 1335.96 761.362 1332.74 755.215 1330.63 749.068 1328.53 741.992 1327.47 733.989 1327.47 722.19 1327.47 713.031 1329.32 706.513 1333 699.994 1336.68 696.735 1341.73 696.735 1348.13 696.735 1352.17 697.952 1355.5 700.386 1358.13 702.82 1360.76 706.966 1363.04 712.825 1364.97 718.683 1366.9 726.563 1368.66 736.464 1370.24 749.336 1372.34 760.578 1374.93 770.191 1378 779.804 1381.07 788.055 1385 794.945 1389.78 801.834 1394.56 807.156 1400.5 810.911 1407.6 814.665 1414.71 816.542 1423.31 816.542 1433.39 816.542 1450.59 811.592 1464.58 801.69 1475.37 796.739 1480.81 791.149 1485.15 784.92 1488.39 778.69 1491.64 771.284 1494.05 762.703 1495.63 754.122 1497.21 744.22 1498 732.999 1498 715.341 1498 700.923 1496.2 689.742 1492.6 678.562 1489.01 669.692 1484.07 663.132 1477.8 656.572 1471.53 650.528 1463.44 645 1453.53L674.456 1425.5C677.345 1432.34 680.624 1438.37 684.296 1443.59 687.968 1448.81 693.703 1453.35 701.5 1457.21 709.297 1461.07 719.632 1463 732.504 1463 745.788 1463 755.937 1461.09 762.95 1457.28 769.964 1453.46 773.471 1448 773.471 1440.89 773.471 1433.88 770.047 1428.42 763.198 1424.51 756.35 1420.61 745.252 1417.69 729.905 1415.76 719.591 1414.36 709.978 1412.25 701.067 1409.45 692.155 1406.64 684.049 1402.76 676.747 1397.8 669.444 1392.85 663.772 1386.86 659.728 1379.84 655.685 1372.82 653.664 1364.71 653.664 1355.5 653.664 1349.36 654.427 1343.48 655.953 1337.87 657.48 1332.25 659.749 1327.03 662.76 1322.21 665.773 1317.39 669.465 1313.13 673.838 1309.45 678.211 1305.76 682.956 1302.78 688.071 1300.5 699.375 1295.5 714.434 1293 733.246 1293Z" fill="#12CBC4" fill-rule="evenodd"/><path d="M1068.47 1110.92C1053.87 1111.07 1041.41 1115.89 1031.09 1125.4 1020.77 1134.92 1015.38 1148.24 1014.92 1165.38 1015.38 1182.52 1020.77 1195.85 1031.09 1205.36 1041.41 1214.87 1053.87 1219.69 1068.47 1219.84 1083.06 1219.69 1095.46 1214.87 1105.67 1205.36 1115.87 1195.85 1121.2 1182.52 1121.65 1165.38 1121.2 1148.24 1115.87 1134.92 1105.67 1125.4 1095.46 1115.89 1083.06 1111.07 1068.47 1110.92ZM1453.61 1110.56C1438.95 1110.63 1426.3 1115.33 1415.66 1124.67 1405.01 1134.02 1399.43 1147.59 1398.92 1165.38 1399.43 1183.18 1405.01 1196.74 1415.66 1206.09 1426.3 1215.43 1438.95 1220.14 1453.6 1220.2 1468.26 1220.16 1480.91 1215.5 1491.55 1206.22 1502.2 1196.95 1507.78 1183.34 1508.29 1165.38 1507.78 1147.43 1502.2 1133.81 1491.55 1124.54 1480.91 1115.26 1468.26 1110.6 1453.61 1110.56ZM1594.67 1070.41 1645.14 1070.41 1645.14 1260.35 1594.67 1260.35ZM1776.56 1066.76C1794.07 1066.77 1810.13 1070.68 1824.72 1078.49 1839.31 1086.3 1851.4 1097.96 1861 1113.48L1824.06 1136.51C1818.91 1128.89 1812.33 1122.75 1804.32 1118.09 1796.3 1113.44 1787.17 1111.05 1776.94 1110.92 1762.32 1111.07 1749.81 1115.89 1739.38 1125.4 1728.96 1134.92 1723.51 1148.24 1723.03 1165.38 1723.51 1182.52 1728.96 1195.85 1739.38 1205.36 1749.81 1214.87 1762.32 1219.69 1776.94 1219.84 1787.17 1219.71 1796.3 1217.32 1804.32 1212.67 1812.33 1208.01 1818.91 1201.88 1824.06 1194.26L1861 1217.28C1851.4 1232.64 1839.31 1244.26 1824.72 1252.14 1810.13 1260.02 1794.07 1263.97 1776.56 1264 1759.03 1263.97 1742.46 1260.21 1726.84 1252.72 1711.23 1245.23 1698.49 1234.17 1688.61 1219.53 1678.74 1204.9 1673.64 1186.85 1673.32 1165.38 1673.64 1143.92 1678.74 1125.87 1688.61 1111.23 1698.49 1096.59 1711.23 1085.53 1726.84 1078.04 1742.46 1070.55 1759.03 1066.79 1776.56 1066.76ZM1443.42 1066.76C1461.07 1067.32 1475.27 1070.86 1486.04 1077.39 1496.8 1083.92 1503.46 1090.11 1506.03 1095.96L1507.16 1095.96 1507.16 1070.41 1557.62 1070.41 1557.62 1260.35 1507.16 1260.35 1507.16 1234.8 1506.03 1234.8C1503.46 1240.65 1496.8 1246.84 1486.04 1253.37 1475.27 1259.9 1461.07 1263.45 1443.42 1264 1427.9 1264 1412.99 1260.35 1398.72 1253.05 1384.44 1245.75 1372.7 1234.79 1363.5 1220.18 1354.29 1205.57 1349.53 1187.3 1349.21 1165.38 1349.53 1143.46 1354.29 1125.19 1363.5 1110.58 1372.7 1095.97 1384.44 1085.01 1398.72 1077.71 1412.99 1070.41 1427.9 1066.76 1443.42 1066.76ZM1255.98 1066.76C1273.92 1066.96 1288.85 1071.4 1300.79 1080.08 1312.73 1088.77 1320.41 1100.51 1323.82 1115.31L1284.28 1125.18C1281.54 1117.62 1277.87 1112.36 1273.25 1109.37 1268.62 1106.39 1263.62 1104.95 1258.25 1105.08 1251.59 1105.19 1246.41 1106.79 1242.73 1109.87 1239.04 1112.96 1237.17 1116.84 1237.11 1121.52 1237 1125.56 1238.46 1129.27 1241.5 1132.67 1244.54 1136.07 1249.87 1139.05 1257.49 1141.62L1279.38 1149.66C1292.03 1153.57 1303.45 1159.74 1313.65 1168.17 1323.85 1176.6 1329.25 1189.07 1329.84 1205.58 1329.3 1224.63 1322.01 1239.12 1307.95 1249.03 1293.89 1258.95 1276.32 1263.94 1255.23 1264 1235.56 1263.97 1219.21 1259.47 1206.19 1250.5 1193.17 1241.52 1185.02 1228.26 1181.75 1210.7L1222.05 1200.1C1223.85 1206.59 1227.32 1212.34 1232.46 1217.37 1237.6 1222.4 1244.94 1225.05 1254.47 1225.32 1261.14 1225.34 1266.96 1223.74 1271.93 1220.52 1276.9 1217.3 1279.51 1212.32 1279.76 1205.58 1279.83 1201.05 1278.18 1197.06 1274.8 1193.61 1271.43 1190.17 1265.91 1187.1 1258.25 1184.39L1234.1 1175.61C1218.02 1169.83 1206.31 1162.21 1198.98 1152.77 1191.66 1143.33 1188.05 1132.79 1188.16 1121.16 1188.67 1104.03 1195.36 1090.72 1208.22 1081.22 1221.07 1071.73 1236.99 1066.91 1255.98 1066.76ZM1068.47 1066.76C1085.78 1066.79 1102.24 1070.55 1117.87 1078.04 1133.5 1085.53 1146.3 1096.59 1156.28 1111.23 1166.25 1125.87 1171.4 1143.92 1171.73 1165.38 1171.4 1186.85 1166.25 1204.9 1156.28 1219.53 1146.3 1234.17 1133.5 1245.23 1117.87 1252.72 1102.24 1260.21 1085.78 1263.97 1068.47 1264 1051.05 1263.97 1034.53 1260.21 1018.91 1252.72 1003.28 1245.23 990.509 1234.17 980.585 1219.53 970.66 1204.9 965.535 1186.85 965.21 1165.38 965.535 1143.92 970.66 1125.87 980.585 1111.23 990.509 1096.59 1003.28 1085.53 1018.91 1078.04 1034.53 1070.55 1051.05 1066.79 1068.47 1066.76ZM1594.67 1001 1645.14 1001 1645.14 1044.06 1594.67 1044.06ZM647 1001 703.874 1001 791.351 1196.42 878.827 1001 935.701 1001 935.701 1260.35 884.105 1260.35 884.105 1097.43 882.221 1097.43 810.203 1260.35 772.121 1260.35 700.481 1097.43 698.596 1097.43 698.596 1260.35 647 1260.35Z" fill="#151D35" fill-rule="evenodd"/><path d="M334 1001 81.0001 1001C81.5142 1083.33 82.0288 1165.67 82.5428 1248L334 1001Z" fill="#EC973D" fill-rule="evenodd"/><path d="M81.0001 1329.17 81.0001 1495 246 1495C244.972 1388.39 246.397 1280.61 245.369 1174L81.0001 1329.17Z" fill="#4587C9" fill-rule="evenodd"/><path d="M304 1115 422.907 1001 595 1001 595 1113.52 304 1115Z" fill="#CC7CED" fill-rule="evenodd"/><path d="M595.557 1211 322 1497 598 1495.82 595.557 1211Z" fill="#12CBC4" fill-rule="evenodd"/><path d="M560 1171 307 1171C307.514 1253.67 308.029 1336.33 308.543 1419L560 1171Z" fill="#D1406C" fill-rule="evenodd"/></g></svg>